inDegrees=no
num_controls=7
num_derivatives=13
num_iterations=116
num_multipliers=7
num_parameters=0
num_slacks=7
num_states=26
objective=0.469874
objective_accelerations=0.063872
objective_balance=0.002070
objective_effort=0.020291
objective_height=0.374128
objective_ligament=0.009513
solver_duration=1557.737317
status=Solve_Succeeded
success=true
DataType=double
version=3
OpenSimVersion=4.5
endheader
time	/jointset/ground_pelvis/pelvis_tilt/value	/jointset/ground_pelvis/pelvis_tx/value	/jointset/ground_pelvis/pelvis_ty/value	/jointset/hip_l/hip_flexion_l/value	/jointset/hip_l/hip_adduction_l/value	/jointset/hip_l/hip_rotation_l/value	/jointset/back/lumbar_extension/value	/jointset/patellofemoral_l/patellar_flexion_l/value	/jointset/knee_l/knee_flexion_l/value	/jointset/knee_l/knee_adduction_l/value	/jointset/knee_l/knee_rotation_l/value	/jointset/ankle_l/ankle_angle_l/value	/jointset/subtalar_l/subtalar_angle_l/value	/jointset/ground_pelvis/pelvis_tilt/speed	/jointset/ground_pelvis/pelvis_tx/speed	/jointset/ground_pelvis/pelvis_ty/speed	/jointset/hip_l/hip_flexion_l/speed	/jointset/hip_l/hip_adduction_l/speed	/jointset/hip_l/hip_rotation_l/speed	/jointset/back/lumbar_extension/speed	/jointset/patellofemoral_l/patellar_flexion_l/speed	/jointset/knee_l/knee_flexion_l/speed	/jointset/knee_l/knee_adduction_l/speed	/jointset/knee_l/knee_rotation_l/speed	/jointset/ankle_l/ankle_angle_l/speed	/jointset/subtalar_l/subtalar_angle_l/speed	/forceset/tau_hip_flexion_l	/forceset/tau_hip_adduction_l	/forceset/tau_hip_rotation_l	/forceset/tau_knee_flexion_l	/forceset/tau_ankle_angle_l	/forceset/tau_subtalar_angle_l	/forceset/tau_lumbar_extension	lambda_cid13_p0	lambda_cid13_p1	lambda_cid13_p2	lambda_cid13_p3	lambda_cid13_p4	lambda_cid13_p5	lambda_cid14_p0	/jointset/ground_pelvis/pelvis_tilt/accel	/jointset/ground_pelvis/pelvis_tx/accel	/jointset/ground_pelvis/pelvis_ty/accel	/jointset/hip_l/hip_flexion_l/accel	/jointset/hip_l/hip_adduction_l/accel	/jointset/hip_l/hip_rotation_l/accel	/jointset/back/lumbar_extension/accel	/jointset/patellofemoral_l/patellar_flexion_l/accel	/jointset/knee_l/knee_flexion_l/accel	/jointset/knee_l/knee_adduction_l/accel	/jointset/knee_l/knee_rotation_l/accel	/jointset/ankle_l/ankle_angle_l/accel	/jointset/subtalar_l/subtalar_angle_l/accel	gamma_cid13_p0	gamma_cid13_p1	gamma_cid13_p2	gamma_cid13_p3	gamma_cid13_p4	gamma_cid13_p5	gamma_cid14_p0
1	-0.8340939931017111	-0.1623244884101096	0.6087992342092999	2.037762473853243	-0.3348961110873013	0.04889135496705341	-0.436283123617167	1.073538779009446	1.073538779009685	-0.002376696129616348	-0.1744076197234981	0.0003893491011885788	0.08561813274307838	-0.171445644097337	0.01412069933009447	0.03286450139819833	0.01650247012863696	-0.006535973976813739	-0.05428737312312366	-0.0001023871660705223	-0.1609275507162522	-0.1609275507162475	-0.01107998442680528	0.0002613437656615086	-0.01740698431120729	-0.01118126307549428	-0.3808971131922447	-0.003457612539889854	-0.005815947686004499	-0.1381194939653767	0.126364571943768	0.01607719416490058	0.2818825993520267	10.1030874725897	-5.178023447396973	-3.537036128259394	-10.25583466859981	-548.0234443402489	-66.5891679982829	-1.843474949074466	3.155396527639309	0.8110820501488539	1.852551879914293	-7.800765720164588	-0.2463992102745121	-1.299939188788048	-0.03119512465298829	-3.962732430265335	-3.962732430265215	-0.42876432310876	-0.01983871904619465	0.4160918406358274	-0.1112007924844616	-1.053226758217701e-08	-4.997851829583336e-08	1.243129636506497e-09	8.560767258511138e-10	-9.630274249567272e-09	3.357612499185431e-08	-1.329425741086374e-08
1.01	-0.8356517083534032	-0.1621428615806677	0.6092202248443296	2.037538918602646	-0.3349729939972035	0.0482841391683062	-0.4362843872419448	1.071731371128489	1.071731371129283	-0.002508324091280113	-0.1744047582157217	0.0002357662588865228	0.08550147118630899	-0.1400809418676517	0.02220450451923084	0.05131728395733776	-0.06119392231758099	-0.008833248122684758	-0.06715258152391353	-0.0001516722370933879	-0.2005468307582035	-0.2005468307582072	-0.01524393177156086	0.0003100944071824164	-0.01333863155429611	-0.0121522930887743	-0.381206854782878	-0.003175113549481571	-0.005824432448719045	-0.1370763974831375	0.1254091716764444	0.01622742416790361	0.2819925346533007	9.827146700169205	-5.233484335212225	-3.484182376417597	-10.19749884180354	-547.734456520394	-66.51753637306875	-1.879010443710815	3.129474643820643	0.8070042129336956	1.839187590483837	-7.751138674510006	-0.2202788747249568	-1.279345097296615	0.008004634687895851	-3.960443331547759	-3.960443331549236	-0.4099732179122964	0.01710597273526248	0.3978461320108138	-0.09023102139526128	-9.767699129230753e-09	-5.93599104395524e-08	-1.701859881084094e-09	-6.103379371875267e-09	-1.299577906739273e-08	4.494910091474591e-08	-1.623034239851785e-08
1.02	-0.8368952830681567	-0.1618804018074074	0.6098252525342648	2.036538986894056	-0.3350726271201628	0.04754836459925162	-0.4362861837508312	1.069527986939036	1.069527986940382	-0.002681544181931939	-0.1744014343981439	0.0001219947719109253	0.08537506394627795	-0.1086175367104675	0.0302872880937404	0.06967191237929932	-0.1387728214701914	-0.01108601658782184	-0.07999912718759124	-0.0002089639875221228	-0.2401228124156604	-0.2401228124156736	-0.01939841022644819	0.000353805728062692	-0.009444713245700185	-0.01313039972787303	-0.3815165963735077	-0.002892614559063816	-0.005832917211418953	-0.136033301000885	0.1244537714091313	0.01637765417091923	0.282102469954578	9.547651223148666	-5.289967744095407	-3.429286388723882	-10.1630768522829	-547.5317202404436	-66.4439983049942	-1.922816273267291	3.175137113139063	0.810877727223577	1.83292105247875	-7.777267061443126	-0.2374980741277425	-1.296206641365629	-0.03279646053410602	-3.954072753366423	-3.954072753366507	-0.4268705451351211	-0.02084658317434364	0.3812049509729329	-0.1126161176481744	-8.679586370645924e-09	-6.835376920971416e-08	-4.361948395850571e-09	-1.322436337224847e-08	-1.615586818567362e-08	5.534988359068172e-08	-1.89955585939105e-08
1.03	-0.8378237494930051	-0.1615371140007183	0.610613245002313	2.034764048353904	-0.335194557543781	0.04668422972836579	-0.436288660389289	1.066929165917708	1.066929165917756	-0.002896261941115153	-0.1743977412421451	4.622456834638116e-05	0.08523882792875477	-0.0770632856324274	0.03837039973886399	0.08790116009951361	-0.2161743074323939	-0.01329023841521154	-0.09282272334196895	-0.0002924772600906785	-0.2796241143345969	-0.2796241143346503	-0.02354195563371793	0.000382376266878691	-0.005744799719428088	-0.01411749778236747	-0.3813778156672751	-0.002563587009064605	-0.005831459072228551	-0.1349436475888593	0.1233778448222049	0.01659502128001474	0.2819365787762703	9.253160926491645	-5.375574594807509	-3.366787776221765	-10.10041228950378	-546.9580181199632	-66.40199823850817	-1.975173674596428	3.147435210369183	0.8070427449727531	1.814109580312774	-7.715506190664742	-0.2103971520056807	-1.274686293254323	0.002954206080085045	-3.94556291518379	-3.94556291518993	-0.40763859336212	0.01434544166395738	0.3590596464099544	-0.09184748911512694	-7.588172139554576e-09	-7.734367355769678e-08	-7.019129757527005e-09	-2.034699561652623e-08	-1.931386122538773e-08	6.574074592736289e-08	-2.175903123019844e-08
